<?xml version="1.0" encoding="UTF-8"?>
<svg id="Calque_1" xmlns="http://www.w3.org/2000/svg" version="1.1" viewBox="0 0 400 400">
  <!-- Generator: Adobe Illustrator 29.2.1, SVG Export Plug-In . SVG Version: 2.1.0 Build 116)  -->
  <defs>
    <style>
      .st0 {
        fill: #fff;
      }
    </style>
  </defs>
  <rect x="0" width="400" height="400" rx="122.8" ry="122.8"/>
  <path class="st0" d="M225.2,334.2c-10.8,0-19.9-1.8-27.4-5.5s-13.5-8.2-18.2-13.6c-4.7-5.4-8.3-10.8-10.8-16.1h-2.5v31.8h-52.5V65.8h53.3v99.6h1.6c2.5-5.2,6-10.6,10.6-16.2,4.6-5.6,10.6-10.3,18-14,7.5-3.8,16.8-5.7,28.1-5.7s28.2,3.8,40.4,11.4c12.2,7.6,22,19,29.2,34.1,7.3,15.2,10.9,34.1,10.9,56.7s-3.6,40.7-10.7,55.9c-7.1,15.2-16.8,26.8-29,34.7-12.2,7.9-26,11.8-41.3,11.8ZM208.8,291.3c9.2,0,17-2.5,23.4-7.6,6.3-5.1,11.1-12.1,14.4-21.2,3.3-9,4.9-19.3,4.9-30.9s-1.6-21.9-4.9-30.8c-3.3-8.9-8-15.9-14.3-21-6.3-5.1-14.1-7.6-23.5-7.6s-16.9,2.5-23.3,7.4c-6.4,4.9-11.3,11.8-14.6,20.6-3.3,8.8-5,19.3-5,31.4s1.7,22.4,5.1,31.4c3.4,9,8.3,15.9,14.7,20.9,6.4,5,14.1,7.5,23.1,7.5Z"/>
</svg>